<svg width="1000" height="1000" viewBox="0 0 1000 1000" fill="none" xmlns="http://www.w3.org/2000/svg">
<path fill-rule="evenodd" clip-rule="evenodd" d="M800 500L799.946 503.77L799.785 507.539L799.517 511.307L799.143 515.073L798.663 518.837L798.076 522.598L797.384 526.355L796.586 530.109L795.683 533.857L794.675 537.6L793.562 541.337L792.344 545.068L791.023 548.791L789.599 552.507L788.071 556.214L786.441 559.913L784.71 563.602L782.877 567.281L780.944 570.95L778.91 574.607L776.778 578.252L774.548 581.886L772.22 585.506L769.795 589.112L767.274 592.705L764.659 596.283L761.949 599.846L759.146 603.393L756.251 606.924L753.266 610.437L750.19 613.934L747.025 617.412L743.773 620.872L740.434 624.313L737.009 627.734L733.5 631.135L729.909 634.515L726.235 637.874L722.482 641.211L718.649 644.526L714.738 647.818L710.752 651.087L706.69 654.332L702.555 657.552L698.348 660.748L694.07 663.918L689.724 667.063L685.31 670.181L680.83 673.272L676.286 676.336L671.68 679.371L667.012 682.379L662.285 685.358L657.5 688.307L652.66 691.227L647.765 694.117L642.818 696.976L637.82 699.804L632.773 702.6L627.678 705.364L622.539 708.096L617.356 710.795L612.131 713.461L606.866 716.093L601.564 718.691L596.225 721.254L590.852 723.782L585.447 726.275L580.012 728.733L574.548 731.154L569.057 733.539L563.542 735.887L558.005 738.197L552.447 740.47L546.87 742.705L541.277 744.902L535.668 747.06L530.048 749.179L524.416 751.258L518.776 753.298L513.129 755.298L507.478 757.258L501.824 759.177L496.169 761.055L490.516 762.892L484.866 764.687L479.221 766.441L473.584 768.152L467.956 769.822L462.339 771.448L456.736 773.032L451.149 774.572L445.578 776.07L440.027 777.523L434.497 778.933L428.991 780.299L423.51 781.62L418.056 782.897L412.631 784.129L407.237 785.317L401.876 786.459L396.55 787.557L391.26 788.608L386.01 789.614L380.8 790.575L375.632 791.49L370.508 792.358L365.43 793.18L360.401 793.957L355.42 794.686L350.491 795.369L345.616 796.006L340.795 796.596L336.031 797.138L331.324 797.634L326.678 798.083L322.094 798.485L317.572 798.84L313.116 799.148L308.726 799.408L304.404 799.621L300.151 799.787L295.969 799.905L291.86 799.976L287.825 800L283.865 799.976L279.982 799.905L276.177 799.787L272.452 799.621L268.807 799.408L265.245 799.148L261.766 798.84L258.371 798.485L255.063 798.083L251.841 797.634L248.708 797.138L245.664 796.596L242.711 796.006L239.848 795.369L237.079 794.686L234.402 793.957L231.82 793.18L229.333 792.358L226.943 791.49L224.649 790.575L222.454 789.614L220.357 788.608L218.359 787.557L216.461 786.459L214.664 785.317L212.969 784.129L211.375 782.897L209.884 781.62L208.496 780.299L207.212 778.933L206.031 777.523L204.955 776.07L203.984 774.572L203.118 773.032L202.358 771.448L201.703 769.822L201.155 768.152L200.712 766.441L200.376 764.687L200.146 762.892L200.023 761.055L200.006 759.177L200.096 757.258L200.293 755.298L200.596 753.298L201.005 751.258L201.521 749.179L202.142 747.06L202.87 744.902L203.703 742.705L204.641 740.47L205.685 738.197L206.833 735.887L208.085 733.539L209.44 731.154L210.899 728.733L212.461 726.275L214.125 723.782L215.89 721.254L217.756 718.691L219.723 716.093L221.789 713.461L223.954 710.795L226.217 708.096L228.578 705.364L231.035 702.6L233.587 699.804L236.234 696.976L238.975 694.117L241.808 691.227L244.734 688.307L247.75 685.358L250.855 682.379L254.049 679.371L257.331 676.336L260.699 673.272L264.151 670.181L267.688 667.063L271.307 663.918L275.007 660.748L278.787 657.552L282.646 654.332L286.582 651.087L290.594 647.818L294.68 644.526L298.84 641.211L303.07 637.874L307.371 634.515L311.74 631.135L316.176 627.734L320.677 624.313L325.243 620.872L329.87 617.412L334.557 613.934L339.304 610.437L344.107 606.924L348.966 603.393L353.878 599.846L358.843 596.283L363.857 592.705L368.92 589.112L374.03 585.506L379.184 581.886L384.381 578.252L389.619 574.607L394.897 570.95L400.212 567.281L405.562 563.602L410.946 559.913L416.361 556.214L421.807 552.507L427.28 548.791L432.778 545.068L438.301 541.337L443.846 537.6L449.41 533.857L454.993 530.109L460.591 526.355L466.204 522.598L471.828 518.837L477.463 515.073L483.105 511.307L488.754 507.539L494.407 503.77L500.061 500L505.716 496.23L511.368 492.461L517.017 488.693L522.659 484.927L528.293 481.163L533.918 477.402L539.53 473.645L545.128 469.891L550.71 466.143L556.274 462.4L561.819 458.663L567.341 454.932L572.839 451.209L578.311 447.493L583.756 443.786L589.171 440.087L594.554 436.398L599.903 432.719L605.218 429.05L610.494 425.393L615.732 421.748L620.928 418.114L626.081 414.494L631.19 410.888L636.252 407.295L641.265 403.717L646.228 400.154L651.14 396.607L655.997 393.076L660.8 389.563L665.545 386.066L670.231 382.588L674.857 379.128L679.42 375.687L683.92 372.266L688.355 368.865L692.723 365.485L697.022 362.126L701.251 358.789L705.409 355.474L709.493 352.182L713.504 348.913L717.438 345.668L721.295 342.448L725.074 339.252L728.772 336.082L732.39 332.937L735.924 329.819L739.375 326.728L742.741 323.664L746.021 320.629L749.213 317.621L752.316 314.642L755.33 311.693L758.254 308.773L761.085 305.883L763.824 303.024L766.469 300.196L769.019 297.4L771.474 294.636L773.832 291.904L776.093 289.205L778.256 286.539L780.32 283.907L782.285 281.309L784.149 278.746L785.912 276.218L787.574 273.725L789.133 271.267L790.59 268.846L791.944 266.461L793.193 264.113L794.339 261.803L795.38 259.53L796.316 257.295L797.147 255.098L797.872 252.94L798.491 250.821L799.005 248.742L799.412 246.702L799.713 244.702L799.907 242.742L799.994 240.823L799.976 238.945L799.85 237.108L799.618 235.313L799.28 233.559L798.835 231.848L798.284 230.178L797.627 228.552L796.864 226.968L795.996 225.428L795.022 223.93L793.944 222.477L792.762 221.067L791.475 219.701L790.085 218.38L788.592 217.103L786.996 215.871L785.298 214.683L783.499 213.541L781.599 212.443L779.599 211.392L777.5 210.386L775.302 209.425L773.006 208.51L770.614 207.642L768.125 206.82L765.541 206.043L762.863 205.314L760.091 204.631L757.227 203.994L754.271 203.404L751.225 202.862L748.09 202.366L744.866 201.917L741.556 201.515L738.16 201.16L734.679 200.852L731.115 200.592L727.469 200.379L723.742 200.213L719.935 200.095L716.05 200.024L712.089 200L708.052 200.024L703.941 200.095L699.758 200.213L695.504 200.379L691.18 200.592L686.788 200.852L682.331 201.16L677.808 201.515L673.222 201.917L668.574 202.366L663.867 202.862L659.102 203.404L654.279 203.994L649.403 204.631L644.473 205.314L639.491 206.043L634.46 206.82L629.382 207.642L624.257 208.51L619.088 209.425L613.877 210.386L608.626 211.392L603.336 212.443L598.009 213.541L592.647 214.683L587.252 215.871L581.827 217.103L576.372 218.38L570.89 219.701L565.383 221.067L559.853 222.477L554.302 223.93L548.731 225.428L543.143 226.968L537.539 228.552L531.923 230.178L526.294 231.848L520.657 233.559L515.012 235.313L509.362 237.108L503.709 238.945L498.054 240.823L492.4 242.742L486.749 244.702L481.102 246.702L475.462 248.742L469.831 250.821L464.21 252.94L458.602 255.098L453.009 257.295L447.433 259.53L441.875 261.803L436.338 264.113L430.824 266.461L425.334 268.846L419.871 271.267L414.436 273.725L409.031 276.218L403.659 278.746L398.321 281.309L393.019 283.907L387.756 286.539L382.532 289.205L377.35 291.904L372.211 294.636L367.118 297.4L362.072 300.196L357.075 303.024L352.129 305.883L347.235 308.773L342.396 311.693L337.612 314.642L332.887 317.621L328.22 320.629L323.615 323.664L319.072 326.728L314.594 329.819L310.182 332.937L305.837 336.082L301.561 339.252L297.355 342.448L293.222 345.668L289.162 348.913L285.176 352.182L281.268 355.474L277.436 358.789L273.684 362.126L270.013 365.485L266.423 368.865L262.916 372.266L259.493 375.687L256.156 379.128L252.906 382.588L249.743 386.066L246.669 389.563L243.685 393.076L240.792 396.607L237.991 400.154L235.284 403.717L232.67 407.295L230.152 410.888L227.729 414.494L225.403 418.114L223.175 421.748L221.045 425.393L219.014 429.05L217.083 432.719L215.252 436.398L213.522 440.087L211.895 443.786L210.37 447.493L208.947 451.209L207.628 454.932L206.413 458.663L205.302 462.4L204.296 466.143L203.395 469.891L202.6 473.645L201.91 477.402L201.326 481.163L200.848 484.927L200.476 488.693L200.211 492.461L200.052 496.23L200 500L200.054 503.77L200.215 507.539L200.483 511.307L200.857 515.073L201.337 518.837L201.924 522.598L202.616 526.355L203.414 530.109L204.317 533.857L205.325 537.6L206.438 541.337L207.656 545.068L208.977 548.791L210.401 552.507L211.929 556.214L213.559 559.913L215.29 563.602L217.123 567.281L219.056 570.95L221.09 574.607L223.222 578.252L225.452 581.886L227.78 585.506L230.205 589.112L232.726 592.705L235.341 596.283L238.051 599.846L240.854 603.393L243.749 606.924L246.734 610.437L249.81 613.934L252.975 617.412L256.227 620.872L259.566 624.313L262.991 627.734L266.5 631.135L270.091 634.515L273.765 637.874L277.518 641.211L281.351 644.526L285.262 647.818L289.248 651.087L293.31 654.332L297.445 657.552L301.652 660.748L305.93 663.918L310.276 667.063L314.69 670.181L319.17 673.272L323.714 676.336L328.32 679.371L332.988 682.379L337.715 685.358L342.5 688.307L347.34 691.227L352.235 694.117L357.182 696.976L362.18 699.804L367.227 702.6L372.321 705.364L377.461 708.096L382.644 710.795L387.869 713.461L393.134 716.093L398.436 718.691L403.775 721.254L409.148 723.782L414.553 726.275L419.988 728.733L425.452 731.154L430.943 733.539L436.458 735.887L441.995 738.197L447.553 740.47L453.13 742.705L458.723 744.902L464.332 747.06L469.952 749.179L475.584 751.258L481.224 753.298L486.871 755.298L492.522 757.258L498.176 759.177L503.831 761.055L509.484 762.892L515.134 764.687L520.779 766.441L526.416 768.152L532.044 769.822L537.661 771.448L543.264 773.032L548.851 774.572L554.422 776.07L559.973 777.523L565.503 778.933L571.009 780.299L576.49 781.62L581.944 782.897L587.369 784.129L592.763 785.317L598.124 786.459L603.45 787.557L608.74 788.608L613.99 789.614L619.2 790.575L624.368 791.49L629.492 792.358L634.57 793.18L639.599 793.957L644.58 794.686L649.508 795.369L654.384 796.006L659.205 796.596L663.969 797.138L668.676 797.634L673.322 798.083L677.906 798.485L682.428 798.84L686.884 799.148L691.274 799.408L695.596 799.621L699.849 799.787L704.031 799.905L708.14 799.976L712.175 800L716.135 799.976L720.018 799.905L723.823 799.787L727.548 799.621L731.193 799.408L734.755 799.148L738.234 798.84L741.629 798.485L744.937 798.083L748.158 797.634L751.292 797.138L754.336 796.596L757.289 796.006L760.152 795.369L762.921 794.686L765.598 793.957L768.18 793.18L770.667 792.358L773.057 791.49L775.351 790.575L777.546 789.614L779.643 788.608L781.641 787.557L783.539 786.459L785.336 785.317L787.031 784.129L788.625 782.897L790.116 781.62L791.504 780.299L792.788 778.933L793.969 777.523L795.045 776.07L796.016 774.572L796.882 773.032L797.642 771.448L798.297 769.822L798.845 768.152L799.288 766.441L799.624 764.687L799.854 762.892L799.977 761.055L799.994 759.177L799.904 757.258L799.707 755.298L799.404 753.298L798.995 751.258L798.479 749.179L797.857 747.06L797.13 744.902L796.297 742.705L795.359 740.47L794.315 738.197L793.167 735.887L791.915 733.539L790.56 731.154L789.101 728.733L787.539 726.275L785.875 723.782L784.11 721.254L782.244 718.691L780.277 716.093L778.211 713.461L776.046 710.795L773.783 708.096L771.422 705.364L768.965 702.6L766.413 699.804L763.766 696.976L761.025 694.117L758.191 691.227L755.266 688.307L752.25 685.358L749.145 682.379L745.951 679.371L742.669 676.336L739.301 673.272L735.849 670.181L732.312 667.063L728.693 663.918L724.993 660.748L721.213 657.552L717.354 654.332L713.418 651.087L709.406 647.818L705.32 644.526L701.16 641.211L696.93 637.874L692.629 634.515L688.26 631.135L683.824 627.734L679.323 624.313L674.757 620.872L670.13 617.412L665.443 613.934L660.696 610.437L655.893 606.924L651.034 603.393L646.122 599.846L641.157 596.283L636.143 592.705L631.08 589.112L625.97 585.506L620.816 581.886L615.619 578.252L610.381 574.607L605.103 570.95L599.788 567.281L594.438 563.602L589.054 559.913L583.639 556.214L578.193 552.507L572.72 548.791L567.222 545.068L561.699 541.337L556.154 537.6L550.59 533.857L545.007 530.109L539.409 526.355L533.796 522.598L528.172 518.837L522.537 515.073L516.895 511.307L511.246 507.539L505.593 503.77L499.939 500L494.284 496.23L488.632 492.461L482.983 488.693L477.341 484.927L471.707 481.163L466.082 477.402L460.47 473.645L454.872 469.891L449.29 466.143L443.726 462.4L438.181 458.663L432.659 454.932L427.161 451.209L421.689 447.493L416.244 443.786L410.829 440.087L405.446 436.398L400.097 432.719L394.782 429.05L389.506 425.393L384.268 421.748L379.072 418.114L373.919 414.494L368.81 410.888L363.748 407.295L358.735 403.717L353.772 400.154L348.86 396.607L344.003 393.076L339.2 389.563L334.455 386.066L329.769 382.588L325.143 379.128L320.58 375.687L316.08 372.266L311.645 368.865L307.277 365.485L302.978 362.126L298.749 358.789L294.591 355.474L290.507 352.182L286.496 348.913L282.562 345.668L278.705 342.448L274.926 339.252L271.228 336.082L267.61 332.937L264.076 329.819L260.625 326.728L257.259 323.664L253.979 320.629L250.787 317.621L247.684 314.642L244.67 311.693L241.746 308.773L238.915 305.883L236.176 303.024L233.531 300.196L230.981 297.4L228.526 294.636L226.168 291.904L223.907 289.205L221.744 286.539L219.68 283.907L217.715 281.309L215.851 278.746L214.088 276.218L212.426 273.725L210.867 271.267L209.41 268.846L208.056 266.461L206.807 264.113L205.661 261.803L204.62 259.53L203.684 257.295L202.853 255.098L202.128 252.94L201.509 250.821L200.995 248.742L200.588 246.702L200.287 244.702L200.093 242.742L200.006 240.823L200.024 238.945L200.15 237.108L200.382 235.313L200.72 233.559L201.165 231.848L201.716 230.178L202.373 228.552L203.136 226.968L204.004 225.428L204.978 223.93L206.056 222.477L207.238 221.067L208.525 219.701L209.915 218.38L211.408 217.103L213.004 215.871L214.702 214.683L216.501 213.541L218.401 212.443L220.401 211.392L222.5 210.386L224.698 209.425L226.994 208.51L229.386 207.642L231.875 206.82L234.459 206.043L237.137 205.314L239.909 204.631L242.773 203.994L245.729 203.404L248.775 202.862L251.91 202.366L255.134 201.917L258.444 201.515L261.84 201.16L265.321 200.852L268.885 200.592L272.531 200.379L276.258 200.213L280.065 200.095L283.95 200.024L287.911 200L291.948 200.024L296.059 200.095L300.242 200.213L304.496 200.379L308.82 200.592L313.211 200.852L317.669 201.16L322.192 201.515L326.778 201.917L331.426 202.366L336.133 202.862L340.898 203.404L345.721 203.994L350.597 204.631L355.527 205.314L360.509 206.043L365.54 206.82L370.618 207.642L375.743 208.51L380.912 209.425L386.123 210.386L391.374 211.392L396.664 212.443L401.991 213.541L407.353 214.683L412.748 215.871L418.173 217.103L423.628 218.38L429.11 219.701L434.617 221.067L440.147 222.477L445.698 223.93L451.269 225.428L456.857 226.968L462.461 228.552L468.077 230.178L473.706 231.848L479.343 233.559L484.988 235.313L490.638 237.108L496.291 238.945L501.946 240.823L507.6 242.742L513.251 244.702L518.898 246.702L524.538 248.742L530.169 250.821L535.79 252.94L541.398 255.098L546.991 257.295L552.567 259.53L558.125 261.803L563.662 264.113L569.176 266.461L574.666 268.846L580.129 271.267L585.564 273.725L590.969 276.218L596.341 278.746L601.679 281.309L606.981 283.907L612.244 286.539L617.468 289.205L622.65 291.904L627.789 294.636L632.882 297.4L637.928 300.196L642.925 303.024L647.871 305.883L652.765 308.773L657.604 311.693L662.388 314.642L667.113 317.621L671.78 320.629L676.385 323.664L680.928 326.728L685.406 329.819L689.818 332.937L694.163 336.082L698.439 339.252L702.645 342.448L706.778 345.668L710.838 348.913L714.824 352.182L718.732 355.474L722.564 358.789L726.316 362.126L729.987 365.485L733.577 368.865L737.084 372.266L740.507 375.687L743.844 379.128L747.094 382.588L750.257 386.066L753.331 389.563L756.315 393.076L759.208 396.607L762.008 400.154L764.716 403.717L767.33 407.295L769.848 410.888L772.271 414.494L774.597 418.114L776.825 421.748L778.955 425.393L780.986 429.05L782.917 432.719L784.748 436.398L786.478 440.087L788.105 443.786L789.63 447.493L791.053 451.209L792.372 454.932L793.587 458.663L794.698 462.4L795.704 466.143L796.605 469.891L797.4 473.645L798.09 477.402L798.674 481.163L799.152 484.927L799.524 488.693L799.789 492.461L799.948 496.23L800 500Z" stroke="black" stroke-width="32"/>
</svg>
